<svg width="142" height="115" viewBox="0 0 142 115" fill="none" xmlns="http://www.w3.org/2000/svg">
<path d="M79.5021 31.8694C101.412 31.8694 113.842 46.4026 115.647 63.9573H116.2C130.299 63.9573 141.73 75.3856 141.73 89.4787C141.73 103.575 130.299 115 116.2 115H42.7975C28.7014 115 17.271 103.575 17.271 89.4787C17.271 75.3856 28.7014 63.9573 42.801 63.9573H43.3542C45.1728 46.2882 57.5886 31.8694 79.5021 31.8694ZM15.7912 60.26C16.5427 61.5653 16.7824 63.1043 16.4634 64.5771C16.1445 66.0499 15.2898 67.3509 14.0659 68.2265L13.5749 68.5418L9.08367 71.1407C7.73749 71.9224 6.14262 72.1543 4.63031 71.7883C3.11801 71.4222 1.80449 70.4865 0.962558 69.1752C0.12063 67.864 -0.184999 66.2782 0.109148 64.747C0.403294 63.2159 1.27461 61.8572 2.54213 60.953L3.03309 60.6377L7.52781 58.0388C8.91714 57.235 10.568 57.0172 12.1176 57.4331C13.6672 57.8489 14.9885 58.8645 15.7912 60.2565V60.26ZM64.6661 27.2018C51.5242 31.4294 42.1613 41.3745 38.3201 54.6498L37.9951 55.828L37.594 57.4774L36.1695 57.7442C32.0293 58.6173 28.1023 60.3025 24.6147 62.7029C21.4335 57.2427 20.2409 50.8456 21.2401 44.6025C22.2393 38.3594 25.3685 32.657 30.0941 28.468C34.8196 24.2789 40.8488 21.8626 47.1533 21.631C53.4578 21.3995 59.6473 23.3671 64.6661 27.1983V27.2018ZM8.65495 24.8732L9.11133 25.0638L13.8135 27.2607C15.2375 27.917 16.3518 29.1015 16.9218 30.5647C17.4918 32.028 17.4731 33.6558 16.8695 35.1055C16.2659 36.5552 15.1246 37.7136 13.6859 38.3367C12.2472 38.9599 10.6233 38.9992 9.15628 38.4464L8.69989 38.2524L3.99773 36.0554C2.58467 35.3924 1.48181 34.2078 0.919429 32.7492C0.357043 31.2906 0.378611 29.6706 0.979629 28.2275C1.58065 26.7844 2.71465 25.6298 4.14485 25.0048C5.57505 24.3797 7.19088 24.3326 8.65495 24.8732ZM74.7273 4.90659C75.9716 5.77927 76.8429 7.08901 77.1683 8.57575C77.4937 10.0625 77.2493 11.6175 76.4837 12.932L76.214 13.3513L73.2406 17.6101C72.348 18.9004 70.9908 19.7935 69.4546 20.1013C67.9184 20.4092 66.323 20.1079 65.0039 19.2608C63.6848 18.4138 62.745 17.0869 62.3821 15.5595C62.0193 14.0321 62.2617 12.4232 63.0583 11.0712L63.328 10.6554L66.3014 6.39317C66.7571 5.74042 67.3367 5.18406 68.007 4.75587C68.6773 4.32769 69.4253 4.03609 70.2081 3.89771C70.9909 3.75933 71.7932 3.77691 72.5692 3.94942C73.3452 4.12193 74.0797 4.446 74.7308 4.90312L74.7273 4.90659ZM39.1464 3.4512L39.3712 3.99177L41.1448 8.87773C41.6817 10.3427 41.6343 11.9588 41.0125 13.3896C40.3907 14.8205 39.2424 15.956 37.8066 16.5599C36.3707 17.1639 34.7578 17.1897 33.3034 16.6321C31.849 16.0745 30.6651 14.9764 29.9979 13.5662L29.7732 13.0256L27.9995 8.13964C27.4674 6.67555 27.518 5.06237 28.1409 3.63469C28.7637 2.20701 29.911 1.07442 31.3448 0.471824C32.7785 -0.130769 34.3887 -0.157108 35.8413 0.398269C37.2939 0.953647 38.4774 2.04812 39.1464 3.45466V3.4512Z" fill="url(#paint0_linear)"/>
<defs>
<linearGradient id="paint0_linear" x1="24.2023" y1="20.7913" x2="90.0627" y2="96.8803" gradientUnits="userSpaceOnUse">
<stop offset="0.10243" stop-color="#28C2D1"/>
<stop offset="0.925347" stop-color="#4931DE"/>
</linearGradient>
</defs>
</svg>
